<svg width="375" height="601" viewBox="0 0 375 601" fill="none" xmlns="http://www.w3.org/2000/svg">
<path d="M517.442 180.305C477.745 40.4409 320.337 9.20332 255.095 2.21686V1.54508C250.45 1.14202 245.806 1.2092 241.161 1.00766C233.178 0.403065 228.098 0.26871 226.792 0.26871C226.356 0.26871 225.921 0.26871 225.485 0.26871C225.195 0.26871 224.905 0.335888 224.615 0.335888C222.147 0.26871 219.68 0 217.285 0C119.603 0 -103.991 8.66592 -154.718 245.198C-190.424 412.134 -100.217 520.021 -34.4667 582.631C93.2597 704.357 260.538 895.678 202.263 1048.71C149.285 1188.98 -15.2352 1225.65 -129.681 1227.67V1227.87C-130.77 1227.87 -131.785 1227.74 -132.874 1227.8C-178.304 1230.89 -250.223 1211.61 -299.572 1169.02C-338.615 1135.37 -358.427 1092.17 -358.427 1040.65C-358.427 985.428 -337.962 938.873 -297.612 902.329C-296.669 901.456 -296.016 900.448 -295.072 899.575C-293.258 898.164 -291.298 896.955 -289.629 895.409C-230.556 839.451 -170.757 815.67 -168.797 814.931C-135.124 802.234 -118.94 766.697 -132.511 735.527C-146.155 704.222 -184.69 689.107 -218.436 701.669C-221.92 702.946 -303.998 734.116 -384.045 810.027C-385.061 811.034 -385.787 812.177 -386.803 813.184C-387.746 813.923 -388.762 814.461 -389.633 815.267C-455.311 874.786 -490 952.712 -490 1040.71C-490 1128.72 -455.166 1201.47 -389.198 1258.3C-314.521 1322.66 -214.372 1350 -141.22 1350C-135.051 1350 -129.1 1349.8 -123.44 1349.4C-123.295 1349.4 -123.222 1349.4 -123.077 1349.4C63.8681 1345.1 262.642 1266.7 333.763 1048.84C395.739 859.268 189.127 626.229 74.4635 511.49C18.1478 455.867 -43.9011 354.966 -19.4444 248.893C10.6004 116.687 143.987 121.927 217.285 121.927C219.027 121.927 220.623 122.062 222.365 122.062C222.946 122.062 223.454 122.263 224.034 122.263C225.486 122.263 366.057 126.831 390.078 211.408C422.155 324.535 309.596 396.751 305.169 399.572C274.834 418.113 266.489 455.934 286.518 484.014C299.146 501.749 320.119 511.423 341.528 511.423C354.01 511.423 366.565 508.131 377.741 501.346C385.797 496.442 573.758 378.949 517.515 180.506L517.442 180.305Z" fill="#FABD43"/>
</svg>
