<svg width="207" height="341" viewBox="0 0 207 341" fill="none" xmlns="http://www.w3.org/2000/svg">
<path d="M196.442 180.305C156.745 40.4409 -0.663086 9.20332 -65.9052 2.21686V1.54508C-70.5497 1.14202 -75.1943 1.2092 -79.8389 1.00766C-87.8218 0.403065 -92.9019 0.26871 -94.2082 0.26871C-94.6436 0.26871 -95.079 0.26871 -95.5145 0.26871C-95.8047 0.26871 -96.095 0.335888 -96.3853 0.335888C-98.8527 0.26871 -101.32 0 -103.715 0C-201.397 0 -424.99 8.66593 -475.718 245.198C-511.424 412.134 -421.217 520.021 -355.467 582.631C-227.74 704.357 -60.4623 895.678 -118.737 1048.71C-171.715 1188.98 -336.235 1225.65 -450.681 1227.67V1227.87C-451.77 1227.87 -452.785 1227.74 -453.874 1227.8C-499.304 1230.89 -571.223 1211.61 -620.572 1169.02C-659.615 1135.37 -679.427 1092.17 -679.427 1040.65C-679.427 985.427 -658.962 938.873 -618.612 902.329C-617.669 901.456 -617.016 900.448 -616.072 899.575C-614.258 898.164 -612.298 896.955 -610.629 895.409C-551.556 839.451 -491.757 815.67 -489.797 814.931C-456.124 802.234 -439.94 766.697 -453.511 735.527C-467.155 704.222 -505.69 689.107 -539.436 701.669C-542.92 702.946 -624.998 734.116 -705.045 810.027C-706.061 811.034 -706.787 812.177 -707.803 813.184C-708.746 813.923 -709.762 814.461 -710.633 815.267C-776.311 874.786 -811 952.712 -811 1040.71C-811 1128.72 -776.166 1201.47 -710.198 1258.3C-635.521 1322.66 -535.372 1350 -462.22 1350C-456.051 1350 -450.1 1349.8 -444.44 1349.4C-444.295 1349.4 -444.222 1349.4 -444.077 1349.4C-257.132 1345.1 -58.3577 1266.7 12.7627 1048.84C74.739 859.268 -131.873 626.229 -246.536 511.49C-302.852 455.867 -364.901 354.966 -340.444 248.893C-310.4 116.687 -177.013 121.927 -103.715 121.927C-101.973 121.927 -100.377 122.062 -98.635 122.062C-98.0544 122.062 -97.5464 122.263 -96.9659 122.263C-95.5145 122.263 45.0571 126.831 69.0784 211.408C101.155 324.535 -11.4037 396.751 -15.8306 399.572C-46.1656 418.113 -54.5113 455.934 -34.4815 484.014C-21.854 501.749 -0.880859 511.423 20.5278 511.423C33.0102 511.423 45.5652 508.131 56.7412 501.346C64.7967 496.442 252.758 378.949 196.515 180.506L196.442 180.305Z" fill="#FABD43"/>
</svg>
