<svg width="114" height="195" viewBox="0 0 114 195" fill="none" xmlns="http://www.w3.org/2000/svg">
<path d="M523.514 -460.896C502.885 -539.323 421.089 -556.839 387.186 -560.757V-561.134C384.772 -561.36 382.359 -561.322 379.945 -561.435C375.797 -561.774 373.157 -561.849 372.478 -561.849C372.252 -561.849 372.026 -561.849 371.799 -561.849C371.649 -561.849 371.498 -561.812 371.347 -561.812C370.065 -561.849 368.783 -562 367.538 -562C316.778 -562 200.588 -557.141 174.228 -424.507C155.674 -330.9 202.549 -270.403 236.716 -235.295C303.089 -167.039 390.014 -59.7567 359.732 26.0537C332.202 104.707 246.71 125.274 187.238 126.404V126.517C186.673 126.517 186.145 126.442 185.579 126.48C161.972 128.213 124.599 117.401 98.9555 93.5192C78.6666 74.6469 68.3713 50.4257 68.3713 21.5334C68.3713 -9.43066 79.006 -35.5354 99.9737 -56.0275C100.464 -56.5172 100.803 -57.0822 101.294 -57.5719C102.236 -58.363 103.255 -59.041 104.122 -59.9074C134.819 -91.2859 165.894 -104.621 166.912 -105.035C184.41 -112.155 192.82 -132.082 185.768 -149.56C178.678 -167.114 158.653 -175.59 141.117 -168.545C139.307 -167.83 96.655 -150.351 55.0591 -107.785C54.5311 -107.22 54.154 -106.579 53.626 -106.014C53.1357 -105.6 52.6078 -105.299 52.1553 -104.847C18.0262 -71.4719 0 -27.7756 0 21.571C0 70.9177 18.1016 111.713 52.3815 143.582C91.1868 179.669 143.229 195 181.242 195C184.448 195 187.54 194.887 190.482 194.661C190.557 194.661 190.595 194.661 190.67 194.661C287.816 192.25 391.108 148.29 428.065 26.129C460.271 -80.1734 352.906 -210.848 293.321 -275.187C264.057 -306.377 231.814 -362.956 244.523 -422.436C260.135 -496.569 329.449 -493.63 367.538 -493.63C368.443 -493.63 369.273 -493.555 370.178 -493.555C370.48 -493.555 370.743 -493.442 371.045 -493.442C371.799 -493.442 444.847 -490.881 457.329 -443.455C473.998 -380.02 415.507 -339.526 413.207 -337.944C397.443 -327.547 393.107 -306.339 403.515 -290.594C410.077 -280.649 420.975 -275.225 432.1 -275.225C438.587 -275.225 445.111 -277.07 450.919 -280.875C455.105 -283.625 552.778 -349.508 523.551 -460.783L523.514 -460.896Z" fill="#FABD43"/>
</svg>
