<?xml version="1.0" encoding="utf-8"?>
<!-- Generator: Adobe Illustrator 27.7.0, SVG Export Plug-In . SVG Version: 6.00 Build 0)  -->
<svg version="1.1" id="Calque_1" xmlns="http://www.w3.org/2000/svg" xmlns:xlink="http://www.w3.org/1999/xlink" x="0px" y="0px"
	 viewBox="0 0 1920 450" style="enable-background:new 0 0 1920 450;" xml:space="preserve">
<style type="text/css">
	.st0{fill:#342B2A;}
</style>
<g>
	<path class="st0" d="M1796.72,90.03c-39.82-20.42-86.09-15.28-126.95,14.09c-4.67,3.36-5.74,9.87-2.38,14.54
		c3.36,4.67,9.87,5.74,14.54,2.38c34.28-24.65,72.66-29.19,105.27-12.47c29.39,15.07,48.38,44.51,48.38,75.01
		c0,46.76-22.31,76.31-37.79,91.2c-0.02-0.06-0.05-0.12-0.07-0.18l-9.33,7.93c-1.52,1.29-3.06,2.48-4.6,3.61
		c-0.2,0.13-0.36,0.23-0.44,0.28c-0.41,0.25-0.8,0.53-1.16,0.83c-11.4,7.9-23.21,11.5-33.84,11.5c-11.25,0-20.51-3.97-27.46-9.26
		l-7.94-86.36l10.59-30.44c5.62-16.21-18.2-17.53-22.83-3.31l-8.61,26.47l-86.68,73.45c-0.93,0.78-1.83,1.62-2.69,2.49
		c-32.49,22.98-48.4,41.36-75.44,40.59c-27.12-0.66-38.37-9.92-38.37-38.04c0-2.32,0-4.63,0.33-6.94
		c63.17,0,114.1-23.49,114.11-52.59c0-20.18-11.24-32.41-39.36-32.42c-45.97,0-99.55,40.35-99.55,93.27c0,1.87,0.05,3.66,0.13,5.42
		c-30.16,19.6-60.81,31.3-87.35,31.3c-30.1,0-41.02-10.92-41.01-38.04c0-30.43,40.02-71.77,73.1-71.77
		c26.46,0,21.5,28.44-1.65,46.97c-5.62,4.63-4.96,11.91,0,15.54c5.96,4.3,14.55,0.99,23.15-6.28c34.06-29.11,25.13-76.4-22.16-76.41
		c-29.54,0-61.37,21.55-79.73,48.61c-0.32,0.23-0.64,0.42-0.95,0.68c-28.33,24.14-56.67,48.29-85,72.43
		c7.5-28.78,14.99-57.55,22.49-86.33c5.62-21.5-3.31-36.05-23.49-36.05c-27.78,0-47.29,8.6-98.23,94.59
		c22.16-83.68,22.16-82.69,22.16-85.33c0-4.96-3.31-8.27-10.26-8.27c-7.94,0-13.23,3.64-14.88,10.58
		c-3.17,12.38-6.34,24.77-9.51,37.15c-0.58,0.38-1.15,0.75-1.72,1.22c-28.66,24.36-57.33,48.73-85.99,73.09
		c4.63-24.59,9.26-49.17,13.89-73.76c1.65-8.93-3.64-15.88-12.24-15.88c-7.61,0-14.55,3.64-18.19,7.61
		c-61.85,67.14-78.38,87.32-87.32,87.32c-4.3,0-5.95-5.95-5.95-13.89c0-47.3,36.38-89.97,91.62-89.97c14.89,0,25.14,2.98,33.74,6.28
		c3.31,1.32,9.92,0.66,12.9-3.97c3.3-4.96,2.98-12.57-0.66-15.55c-10.58-7.94-23.48-10.25-45.64-10.25
		c-59.48,0-97.59,36.56-110.51,79.94c-15.44,13.15-30.88,26.31-46.32,39.46c-10.25,8.27-17.53,11.25-24.14,11.25
		c-11.24,0-19.85-7.28-15.21-26.13c6.62-27.23,13.23-54.46,19.85-81.69c19.73,0,39.47,0,59.2,0c12.9,0,18.52-22.82,0-22.82
		c-17.97,0-35.94,0-53.91,0c3.64-14.55,6.95-29.77,8.6-35.72c2.65-10.92,1.98-17.2-7.28-17.2c-5.96,0-11.25,4.3-13.56,14.88
		c-3.09,12.68-6.17,25.36-9.26,38.04c-7.77,0-15.54,0-23.31,0c-17.92,0-13.38,22.82-2.32,22.82c6.67,0,13.33,0,20,0
		c-5.6,23.47-11.2,46.94-16.8,70.41c-11.3,7.74-22.99,11.29-33.52,11.29c-11.25,0-20.51-3.97-27.45-9.26
		c-2.65-28.78-5.29-57.55-7.94-86.33c3.53-10.14,7.06-20.29,10.58-30.43c5.62-16.2-18.19-17.53-22.82-3.31
		c-2.87,8.82-5.73,17.64-8.6,26.46c-18.5,15.68-37.01,31.36-55.51,47.03c-0.13,0.1-0.25,0.16-0.37,0.27
		c-15.1,12.79-30.21,25.58-45.31,38.36c1.33-9.92,1.66-21.17,1.33-32.41c-0.66-21.83-8.27-54.57-37.05-54.57
		c-21.5,0-62.18,44.65-100.55,82.69c10.8-41.45,21.61-82.91,32.41-124.36c0.99-3.97-1.99-11.57-10.92-11.57
		c-7.28,0-13.23,6.94-14.55,11.91c-7.77,29.87-15.54,59.75-23.31,89.62c-0.16,0.12-0.33,0.21-0.49,0.34
		c-28.33,24.14-56.67,48.29-85,72.43c21.17-81.04,24.47-93.28,26.13-103.86c1.99-13.89-5.29-17.53-11.91-17.53
		c-7.94,0-12.57,4.63-18.19,13.56c-55.9,88.64-68.13,114.1-88.97,114.11c-6.94,0-17.53-6.28-16.21-16.21
		c3.97-29.44,13.23-50.93,30.76-98.89c2.31-6.29-2.65-12.57-9.26-12.57c-6.29,0-11.25,3.97-14.56,12.24
		c-10.59,26.46-24.8,66.81-29.1,103.85c-2.65,22.49,17.2,34.73,34.06,34.73c29.44,0,53.25-30.43,87.65-88.31
		c-5.62,21.61-11.25,43.22-16.87,64.83c-3.97,15.21-0.66,23.48,11.25,23.48c11.9,0,17.2-3.97,31.09-15.87
		c20.21-17.29,40.43-34.58,60.64-51.87c-4.78,18.39-9.57,36.78-14.35,55.17c-1.66,6.61,2.31,12.57,10.25,12.57
		c7.61,0,13.56-6.28,16.54-10.92c40.68-60.53,104.19-115.1,115.1-115.1c11.57,0,10.92,21.5,11.57,29.43
		c3.64,52.92-3.64,79.71-73.76,70.78c-16.54-1.98-17.2,21.17,0,23.15c39.03,4.3,60.53-3.64,76.73-17.2
		c13.65-11.62,27.29-23.23,40.94-34.85c0.36-0.28,0.71-0.57,1.05-0.87c0.35-0.31,0.7-0.61,1.05-0.92
		c10.13-8.62,20.26-17.25,30.39-25.87c1.95-1.66,3.66-3.4,5.03-5.2c13.86-12.16,27.73-24.32,41.59-36.48
		c1.76,20.51,3.53,41.01,5.29,61.52c-16.21,2.31-33.41,15.54-39.69,31.42c-6.95,17.2,1.66,31.42,18.85,31.42
		c17.2,0,37.05-13.89,43.66-30.43c0,0.11,0,0.22,0,0.33c6.28,3.63,12.9,5.95,25.47,5.95c9.92,0,20.91-2.04,31.61-6.59
		c0.19,18.81,14.93,30.4,35.25,30.4c14.55,0,30.76-6.61,45.64-19.18c7.97-6.83,15.94-13.65,23.91-20.48
		c-0.01,0.76-0.05,1.52-0.05,2.29c0,21.83,8.27,37.04,29.44,37.04c19.51,0,55.56-45.64,89.3-85c-3.64,20.62-7.28,41.23-10.92,61.85
		c-2.64,14.55-0.66,23.48,11.25,23.48c11.9,0,17.2-3.97,31.09-15.87c20.71-17.71,41.41-35.42,62.11-53.13
		c-4.39,17.16-8.79,34.32-13.18,51.47c-2.65,10.25,1.65,17.53,11.57,17.53c8.6,0,14.89-5.95,20.84-15.55
		c56.89-93.27,77.72-112.45,91.61-112.45c6.94,0,9.26,3.64,7.61,10.58c-8.16,31.31-16.32,62.62-24.48,93.93
		c-3.97,15.21-0.66,23.48,11.25,23.48c11.91,0,17.19-3.97,31.09-15.87c18.26-15.62,36.52-31.24,54.78-46.85
		c-0.14,1.62-0.22,3.24-0.23,4.85c0,49.62,26.13,57.88,62.18,57.88c32.25,0,61.83-9.96,93.01-29.86
		c8.98,25.11,31.53,29.86,57.06,29.86c32.16,0,47.11-14.2,84.5-41.68c1.14-0.69,2.23-1.5,3.23-2.37c0,0,0,0,0,0l0,0l0,0l78.08-68.49
		l5.29,61.54c-16.21,2.32-33.41,15.55-39.7,31.44c-6.95,17.2,1.65,31.43,18.86,31.43c17.21,0,37.06-13.9,43.67-30.44v0.33
		c6.29,3.64,12.91,5.96,25.48,5.96c16.3,0,35.48-5.47,51.54-18.6c11.47-7.9,59.83-45.57,59.83-119.06
		C1856.44,145.35,1833,108.63,1796.72,90.03z M1558.06,202.57c13.23,0,18.86,3.64,18.85,12.9c0,17.86-36.72,30.43-80.37,30.43
		C1509.78,220.76,1538.22,202.57,1558.06,202.57z"/>
	<path class="st0" d="M1647.7,148.25c2.81,0,5.62-1.13,7.68-3.37c1.48-1.61,2.96-3.17,4.45-4.68c4.03-4.11,3.96-10.71-0.15-14.74
		c-4.11-4.02-10.71-3.97-14.74,0.15c-1.64,1.67-3.28,3.39-4.91,5.17c-3.89,4.24-3.62,10.83,0.62,14.72
		C1642.65,147.34,1645.18,148.25,1647.7,148.25z"/>
	<g>
		<path class="st0" d="M258.01,131.76c-7.62-29.04-37.89-35.53-50.43-36.97c0-0.05,0-0.1,0-0.15c-0.9-0.08-1.78-0.07-2.67-0.12
			c-1.53-0.12-2.52-0.15-2.76-0.15c-0.08,0-0.16,0-0.24,0c-0.06,0-0.11,0.02-0.17,0.02c-0.47-0.01-0.95-0.06-1.41-0.06
			c-18.78,0-61.75,1.81-71.51,50.92c-6.86,34.67,10.48,57.06,23.11,70.06c24.56,25.28,56.7,65,45.5,96.78
			c-10.18,29.13-41.81,36.75-63.8,37.15c0,0.01,0,0.03,0,0.04c-0.2,0-0.4-0.03-0.61-0.02c-8.73,0.65-22.56-3.37-32.04-12.2
			c-7.51-6.99-11.31-15.96-11.31-26.65c0-11.47,3.93-21.13,11.69-28.72c0.18-0.18,0.31-0.39,0.48-0.58
			c0.35-0.29,0.72-0.54,1.04-0.87c11.35-11.62,22.85-16.56,23.22-16.71c6.47-2.64,9.59-10.01,6.97-16.49
			c-2.62-6.51-10.03-9.64-16.51-7.03c-0.67,0.27-16.44,6.74-31.84,22.5c-0.2,0.21-0.34,0.44-0.52,0.66
			c-0.18,0.15-0.38,0.27-0.55,0.44c-12.63,12.36-19.3,28.54-19.3,46.81c0,17.75,6.7,33.37,19.38,45.18
			c14.35,13.36,33.6,19.04,47.67,19.04c1.18,0,2.32-0.04,3.42-0.12c0.03,0,0.05-0.01,0.07-0.01c35.93-0.9,74.13-17.17,87.81-62.41
			c11.92-39.36-27.81-87.76-49.84-111.59c-10.83-11.56-22.75-32.5-18.06-54.53c5.78-27.45,31.42-26.36,45.5-26.36
			c0.33,0,0.65,0.02,0.98,0.03c0.11,0.01,0.21,0.04,0.32,0.04c0.27,0.01,27.3,0.94,31.92,18.51c6.17,23.5-15.47,38.49-16.33,39.07
			c-5.83,3.85-7.44,11.7-3.59,17.53c2.43,3.69,6.46,5.68,10.57,5.68c2.39,0,4.81-0.68,6.96-2.09
			C232.69,197.36,268.83,172.96,258.01,131.76z"/>
	</g>
</g>
</svg>
